<svg height="479pt" viewBox="0 -88 479.60456 479" width="479pt" xmlns="http://www.w3.org/2000/svg" xmlns:xlink="http://www.w3.org/1999/xlink"><linearGradient id="a" gradientUnits="userSpaceOnUse" x1="239.604558" x2="239.604558" y1="304.31424" y2=".31424"><stop offset="0" stop-color="#12c2e9"/><stop offset=".5" stop-color="#c471ed"/><stop offset=".982" stop-color="#f64f59"/></linearGradient><path d="m383.605469 112.3125c-3.832031.003906-7.660157.234375-11.464844.691406-10.328125-33.632812-41.355469-56.617187-76.535156-56.691406-8.757813-.007812-17.453125 1.445312-25.730469 4.296875-20.488281-44.300781-69.042969-68.378906-116.707031-57.871094-47.667969 10.507813-81.597657 52.765625-81.5625 101.574219.003906 8.433594 1.054687 16.835938 3.117187 25.007812-45.414062 6.933594-77.859375 47.636719-74.484375 93.453126 3.371094 45.820312 41.425781 81.335937 87.367188 81.539062h296c53.019531 0 96-42.980469 96-96s-42.980469-96-96-96zm0 176h-296c-39.441407.171875-71.667969-31.441406-72.257813-70.878906-.585937-39.4375 30.683594-71.996094 70.113282-73 2.558593-.070313 4.929687-1.363282 6.375-3.476563 1.449218-2.113281 1.796874-4.789062.9375-7.203125-15.878907-45.441406 7.742187-95.203125 52.988281-111.632812 45.246093-16.429688 95.292969 6.589844 112.265625 51.632812.777344 2.089844 2.386718 3.757813 4.445312 4.609375 2.0625.851563 4.378906.804688 6.402344-.128906 8.375-3.894531 17.496094-5.914063 26.730469-5.921875 30.4375.054688 56.648437 21.496094 62.726562 51.320312.871094 4.335938 5.09375 7.140626 9.425781 6.265626 5.214844-1.046876 10.523438-1.578126 15.847657-1.585938 44.183593 0 80 35.820312 80 80 0 44.183594-35.816407 80-80 80zm0 0" fill="url(#a)"/></svg>